<svg width="200" height="32" viewBox="0 0 200 32" fill="none" xmlns="http://www.w3.org/2000/svg">
<path d="M46.748 26V6.512H51.144V26H46.748ZM40.56 10.068V6.232H57.332V10.068H40.56ZM62.6929 26.308C61.2929 26.308 60.0236 26 58.8849 25.384C57.7649 24.7493 56.8782 23.8907 56.2249 22.808C55.5716 21.7253 55.2449 20.512 55.2449 19.168C55.2449 17.824 55.5716 16.62 56.2249 15.556C56.8782 14.492 57.7649 13.652 58.8849 13.036C60.0049 12.4013 61.2742 12.084 62.6929 12.084C64.1116 12.084 65.3809 12.392 66.5009 13.008C67.6209 13.624 68.5076 14.4733 69.1609 15.556C69.8142 16.62 70.1409 17.824 70.1409 19.168C70.1409 20.512 69.8142 21.7253 69.1609 22.808C68.5076 23.8907 67.6209 24.7493 66.5009 25.384C65.3809 26 64.1116 26.308 62.6929 26.308ZM62.6929 22.416C63.3089 22.416 63.8502 22.2853 64.3169 22.024C64.7836 21.744 65.1382 21.3613 65.3809 20.876C65.6422 20.372 65.7729 19.8027 65.7729 19.168C65.7729 18.5333 65.6422 17.9827 65.3809 17.516C65.1196 17.0307 64.7556 16.6573 64.2889 16.396C63.8409 16.116 63.3089 15.976 62.6929 15.976C62.0956 15.976 61.5636 16.116 61.0969 16.396C60.6302 16.6573 60.2662 17.0307 60.0049 17.516C59.7436 18.0013 59.6129 18.5613 59.6129 19.196C59.6129 19.812 59.7436 20.372 60.0049 20.876C60.2662 21.3613 60.6302 21.744 61.0969 22.024C61.5636 22.2853 62.0956 22.416 62.6929 22.416ZM78.8257 26.308C77.4257 26.308 76.1564 26 75.0177 25.384C73.8977 24.7493 73.0111 23.8907 72.3577 22.808C71.7044 21.7253 71.3777 20.512 71.3777 19.168C71.3777 17.824 71.7044 16.62 72.3577 15.556C73.0111 14.492 73.8977 13.652 75.0177 13.036C76.1377 12.4013 77.4071 12.084 78.8257 12.084C80.2444 12.084 81.5137 12.392 82.6337 13.008C83.7537 13.624 84.6404 14.4733 85.2937 15.556C85.9471 16.62 86.2737 17.824 86.2737 19.168C86.2737 20.512 85.9471 21.7253 85.2937 22.808C84.6404 23.8907 83.7537 24.7493 82.6337 25.384C81.5137 26 80.2444 26.308 78.8257 26.308ZM78.8257 22.416C79.4417 22.416 79.9831 22.2853 80.4497 22.024C80.9164 21.744 81.2711 21.3613 81.5137 20.876C81.7751 20.372 81.9057 19.8027 81.9057 19.168C81.9057 18.5333 81.7751 17.9827 81.5137 17.516C81.2524 17.0307 80.8884 16.6573 80.4217 16.396C79.9737 16.116 79.4417 15.976 78.8257 15.976C78.2284 15.976 77.6964 16.116 77.2297 16.396C76.7631 16.6573 76.3991 17.0307 76.1377 17.516C75.8764 18.0013 75.7457 18.5613 75.7457 19.196C75.7457 19.812 75.8764 20.372 76.1377 20.876C76.3991 21.3613 76.7631 21.744 77.2297 22.024C77.6964 22.2853 78.2284 22.416 78.8257 22.416ZM88.4065 26V5.672H92.6905V26H88.4065ZM105.423 26.308C103.986 26.308 102.633 26.0467 101.363 25.524C100.113 25.0013 99.0206 24.2827 98.0873 23.368C97.154 22.4347 96.4166 21.352 95.8753 20.12C95.3526 18.8693 95.0913 17.5253 95.0913 16.088C95.0913 14.6507 95.362 13.316 95.9033 12.084C96.4446 10.852 97.1913 9.77867 98.1433 8.864C99.114 7.93067 100.243 7.212 101.531 6.708C102.819 6.18533 104.201 5.924 105.675 5.924C107.374 5.924 108.914 6.232 110.295 6.848C111.695 7.464 112.853 8.31333 113.767 9.396L110.771 12.392C110.137 11.5707 109.39 10.9547 108.531 10.544C107.673 10.1333 106.702 9.928 105.619 9.928C104.462 9.928 103.426 10.1893 102.511 10.712C101.597 11.216 100.878 11.9347 100.355 12.868C99.8513 13.7827 99.5993 14.856 99.5993 16.088C99.5993 17.32 99.8513 18.4027 100.355 19.336C100.859 20.2693 101.55 20.9973 102.427 21.52C103.305 22.0427 104.313 22.304 105.451 22.304C106.609 22.304 107.589 22.0893 108.391 21.66C109.213 21.212 109.838 20.5773 110.267 19.756C110.715 18.916 110.939 17.8987 110.939 16.704L113.851 18.664L105.031 18.524V14.8H115.419V15.444C115.419 17.8147 114.99 19.812 114.131 21.436C113.291 23.0413 112.115 24.2547 110.603 25.076C109.11 25.8973 107.383 26.308 105.423 26.308ZM117.692 26V5.672H121.976V26H117.692ZM124.992 26V12.392H129.276V26H124.992ZM127.148 10.516C126.476 10.516 125.916 10.292 125.468 9.844C125.039 9.37733 124.824 8.81733 124.824 8.164C124.824 7.492 125.039 6.932 125.468 6.484C125.916 6.036 126.476 5.812 127.148 5.812C127.82 5.812 128.371 6.036 128.8 6.484C129.23 6.932 129.444 7.492 129.444 8.164C129.444 8.81733 129.23 9.37733 128.8 9.844C128.371 10.292 127.82 10.516 127.148 10.516ZM132.293 26V12.392H136.577V26H132.293ZM141.001 26V18.048C141.001 17.3573 140.787 16.8253 140.357 16.452C139.947 16.06 139.433 15.864 138.817 15.864C138.388 15.864 138.005 15.9573 137.669 16.144C137.333 16.312 137.063 16.5547 136.857 16.872C136.671 17.1893 136.577 17.5813 136.577 18.048L134.925 17.32C134.925 16.2373 135.159 15.3133 135.625 14.548C136.092 13.764 136.727 13.1667 137.529 12.756C138.332 12.3267 139.237 12.112 140.245 12.112C141.197 12.112 142.047 12.3267 142.793 12.756C143.559 13.1853 144.165 13.7827 144.613 14.548C145.061 15.3133 145.285 16.228 145.285 17.292V26H141.001ZM149.709 26V18.048C149.709 17.3573 149.495 16.8253 149.065 16.452C148.655 16.06 148.141 15.864 147.525 15.864C147.096 15.864 146.713 15.9573 146.377 16.144C146.041 16.312 145.771 16.5547 145.565 16.872C145.379 17.1893 145.285 17.5813 145.285 18.048L142.821 17.712C142.859 16.5547 143.129 15.5653 143.633 14.744C144.156 13.904 144.837 13.26 145.677 12.812C146.536 12.3453 147.497 12.112 148.561 12.112C149.607 12.112 150.531 12.336 151.333 12.784C152.155 13.2133 152.799 13.8387 153.265 14.66C153.751 15.4627 153.993 16.4333 153.993 17.572V26H149.709ZM164.579 26.28C163.664 26.28 162.824 26.1027 162.059 25.748C161.293 25.3933 160.668 24.908 160.183 24.292C159.697 23.6573 159.417 22.9387 159.343 22.136V16.396C159.417 15.5933 159.697 14.8653 160.183 14.212C160.668 13.5587 161.293 13.0453 162.059 12.672C162.824 12.2987 163.664 12.112 164.579 12.112C165.867 12.112 167.005 12.42 167.995 13.036C169.003 13.652 169.787 14.492 170.347 15.556C170.925 16.62 171.215 17.8333 171.215 19.196C171.215 20.5587 170.925 21.772 170.347 22.836C169.787 23.9 169.003 24.74 167.995 25.356C167.005 25.972 165.867 26.28 164.579 26.28ZM156.739 31.74V12.392H161.023V15.892L160.323 19.196L160.967 22.5V31.74H156.739ZM163.795 22.416C164.411 22.416 164.943 22.276 165.391 21.996C165.857 21.716 166.221 21.3333 166.483 20.848C166.744 20.3627 166.875 19.812 166.875 19.196C166.875 18.5613 166.744 18.0013 166.483 17.516C166.221 17.0307 165.857 16.6573 165.391 16.396C164.943 16.116 164.42 15.976 163.823 15.976C163.225 15.976 162.693 16.116 162.227 16.396C161.779 16.6573 161.424 17.0307 161.163 17.516C160.901 18.0013 160.771 18.5613 160.771 19.196C160.771 19.812 160.892 20.3627 161.135 20.848C161.396 21.3333 161.76 21.716 162.227 21.996C162.693 22.276 163.216 22.416 163.795 22.416ZM178.347 26.336C177.544 26.336 176.751 26.2333 175.967 26.028C175.202 25.8227 174.483 25.5333 173.811 25.16C173.158 24.768 172.598 24.32 172.131 23.816L174.567 21.352C175.015 21.8373 175.547 22.22 176.163 22.5C176.779 22.7613 177.451 22.892 178.179 22.892C178.683 22.892 179.066 22.8173 179.327 22.668C179.607 22.5187 179.747 22.3133 179.747 22.052C179.747 21.716 179.579 21.464 179.243 21.296C178.926 21.1093 178.515 20.9507 178.011 20.82C177.507 20.6707 176.975 20.512 176.415 20.344C175.855 20.176 175.323 19.9427 174.819 19.644C174.315 19.3453 173.904 18.9347 173.587 18.412C173.27 17.8707 173.111 17.1893 173.111 16.368C173.111 15.4907 173.335 14.7347 173.783 14.1C174.231 13.4467 174.866 12.9333 175.687 12.56C176.508 12.1867 177.47 12 178.571 12C179.728 12 180.792 12.2053 181.763 12.616C182.752 13.008 183.555 13.596 184.171 14.38L181.735 16.844C181.306 16.34 180.82 15.9853 180.279 15.78C179.756 15.5747 179.243 15.472 178.739 15.472C178.254 15.472 177.89 15.5467 177.647 15.696C177.404 15.8267 177.283 16.0227 177.283 16.284C177.283 16.564 177.442 16.788 177.759 16.956C178.076 17.124 178.487 17.2733 178.991 17.404C179.495 17.5347 180.027 17.6933 180.587 17.88C181.147 18.0667 181.679 18.3187 182.183 18.636C182.687 18.9533 183.098 19.3827 183.415 19.924C183.732 20.4467 183.891 21.1373 183.891 21.996C183.891 23.3213 183.387 24.376 182.379 25.16C181.39 25.944 180.046 26.336 178.347 26.336ZM192.935 26.308C191.46 26.308 190.144 26.0093 188.987 25.412C187.848 24.796 186.952 23.9467 186.299 22.864C185.646 21.7813 185.319 20.5587 185.319 19.196C185.319 17.8333 185.636 16.62 186.271 15.556C186.924 14.4733 187.802 13.624 188.903 13.008C190.004 12.392 191.246 12.084 192.627 12.084C193.971 12.084 195.156 12.3733 196.183 12.952C197.21 13.5307 198.012 14.3333 198.591 15.36C199.188 16.3867 199.487 17.5627 199.487 18.888C199.487 19.1307 199.468 19.392 199.431 19.672C199.412 19.9333 199.366 20.2413 199.291 20.596L187.559 20.624V17.684L197.471 17.656L195.623 18.888C195.604 18.104 195.483 17.46 195.259 16.956C195.035 16.4333 194.699 16.0413 194.251 15.78C193.822 15.5 193.29 15.36 192.655 15.36C191.983 15.36 191.395 15.5187 190.891 15.836C190.406 16.1347 190.023 16.564 189.743 17.124C189.482 17.684 189.351 18.3653 189.351 19.168C189.351 19.9707 189.491 20.6613 189.771 21.24C190.07 21.8 190.48 22.2387 191.003 22.556C191.544 22.8547 192.179 23.004 192.907 23.004C193.579 23.004 194.186 22.892 194.727 22.668C195.268 22.4253 195.744 22.0707 196.155 21.604L198.507 23.956C197.835 24.74 197.023 25.328 196.071 25.72C195.119 26.112 194.074 26.308 192.935 26.308Z" fill="#4D2296"/>
<g clip-path="url(#clip0_203_2186)">
<rect width="14" height="14" rx="4" fill="#4D2296"/>
<rect y="18" width="14" height="14" rx="4" fill="#4D2296"/>
<rect x="18" y="18" width="14" height="14" rx="4" fill="#4D2296"/>
<path d="M25 2C23.0366 2 21.4645 2.82143 20.32 3.79911C19.1828 4.77009 18.4222 5.92857 18.0601 6.72545C17.98 6.90179 17.98 7.09821 18.0601 7.27455C18.4222 8.07143 19.1828 9.23214 20.32 10.2009C21.4645 11.1763 23.0366 12 25 12C26.9634 12 28.5355 11.1786 29.68 10.2009C30.8172 9.22991 31.5778 8.07143 31.9399 7.27455C32.02 7.09821 32.02 6.90179 31.9399 6.72545C31.5778 5.92857 30.8172 4.76786 29.68 3.79911C28.5355 2.82366 26.9634 2 25 2ZM21.5009 7C21.5009 5.22545 23.0682 3.78571 25 3.78571C26.9318 3.78571 28.4991 5.22545 28.4991 7C28.4991 8.77455 26.9318 10.2143 25 10.2143C23.0682 10.2143 21.5009 8.77455 21.5009 7ZM25 5.57143C25 6.35938 24.3026 7 23.4448 7C23.1654 7 22.903 6.93304 22.6746 6.8125C22.6503 7.0558 22.6721 7.3058 22.745 7.55357C23.0779 8.69643 24.3585 9.375 25.6026 9.0692C26.8467 8.76339 27.5854 7.58705 27.2525 6.4442C26.9561 5.42411 25.9039 4.77455 24.7959 4.86384C24.9247 5.07143 25 5.3125 25 5.57143Z" fill="#4D2296"/>
</g>
<defs>
<clipPath id="clip0_203_2186">
<rect width="32" height="32" fill="white"/>
</clipPath>
</defs>
</svg>
